<?xml version="1.0" encoding="UTF-8"?>
<svg id="_Layer_" data-name="&amp;lt;Layer&amp;gt;" xmlns="http://www.w3.org/2000/svg" viewBox="0 0 1138.48948 1133.13318">
  <defs>
    <style>
      .cls-1 {
        fill: none;
        stroke: #467648;
        stroke-linecap: round;
        stroke-linejoin: round;
        stroke-width: 4px;
      }
    </style>
  </defs>
  <g>
    <path class="cls-1" d="M738.80637,201.95292c10.39602.90734,21.06417-5.00097,25.81061-14.2945,4.74631-9.29354,3.27853-21.40004-3.55119-29.29005-9.18132-10.60679-24.89472-12.2676-36.79242-19.70046-9.95003-6.21619-17.09393-16.75189-19.18654-28.29585-1.13875-6.28216-.84493-12.7647-2.08262-19.02807s-4.46655-12.66878-10.29181-15.282c-7.87897-3.53463-16.83953,1.03967-23.04469,5.68072-5.62724-10.58668-17.05872-17.8432-29.03381-18.42992-11.97496-.58672-24.06123,5.51752-30.69633,15.50342-6.15246,9.25937-7.50447,20.76155-10.25528,31.53298-2.75081,10.7713-7.95309,22.12236-18.13176,26.59299-11.38522,5.00057-25.35753-.24086-36.66772,4.92699-10.63662,4.8601-15.59961,18.37762-12.70925,29.7091,2.89036,11.33161,12.23922,20.22502,24.40813,23.88593,3.34173,28.83907,21.19859,55.62364,46.53457,69.79936,25.33584,14.17585,57.50456,15.38135,83.8304,3.1416,26.32584-12.23987,46.13734-37.61277,51.85971-66.45224Z"/>
    <path class="cls-1" d="M684.60951,131.86907c6.26993-4.82567,15.20329-5.92553,22.45665-2.76474"/>
    <path class="cls-1" d="M628.73515,130.75003c-6.23288-3.54199-13.62592-5.00176-20.73737-4.09468"/>
    <path class="cls-1" d="M683.2684,160.26767c4.65406,4.1747,11.09942,6.28071,17.3206,5.6593,6.22105-.62141,12.12253-3.96064,15.85887-8.97344"/>
    <path class="cls-1" d="M594.68473,155.47774c3.96196,4.86549,10.07329,7.91288,16.34349,8.14954,6.27007.23653,12.59374-2.34149,16.91115-6.89463"/>
    <path class="cls-1" d="M656.22024,157.84971c-.69421,8.16964,1.41522,16.55163,5.89386,23.41945,2.11008,3.23582,4.85695,6.5857,4.44014,10.42624-.51339,4.73106-5.45247,7.48713-9.78735,9.45096"/>
    <path class="cls-1" d="M622.548,218.67248c5.6568,8.53363,15.59751,14.06415,25.83124,14.37098,10.2336.30683,20.48783-4.61819,26.64568-12.79755"/>
    <path class="cls-1" d="M745.88063,164.68271c3.50112,4.1065,4.40597,10.2516,2.23702,15.19304"/>
    <path class="cls-1" d="M553.63483,155.719c-5.4325,4.16222-7.21998,12.41293-3.99704,18.45028"/>
    <path class="cls-1" d="M680.58474,23.03081c14.80921-14.44128,38.9481-17.0825,57.75199-8.48869,18.80389,8.60695,32.1151,27.02977,37.17415,47.06886,4.0998,16.29408,3.40336,34.07302,11.26131,48.92165,13.29807,25.11128,48.27777,36.58283,53.62591,64.49301,4.58599,23.9155-15.8473,46.71407-13.48203,70.94494,2.1156,21.58965,21.14288,36.92448,32.667,55.30788,16.66201,26.54358,16.89853,62.44311.88041,89.34148"/>
    <path class="cls-1" d="M713.35686,323.03893c-15.42681-14.62525-22.94311-36.99018-19.9471-57.98852"/>
    <path class="cls-1" d="M714.43437,323.30174c-.19711,5.76863-1.64255,11.39271-4.04724,16.62259-2.8646,6.29424-7.13523,12.01031-12.24684,16.68829-2.65436,2.43097-5.51896,4.59913-8.55439,6.50449-7.6477,4.86194-16.3335,8.14704-25.20326,10.15752-.59132.1314-1.16949.26281-1.76081.36793-8.89604,1.83965-18.01547,2.39155-27.05605,1.72139-9.96041-.72272-19.8157-2.91717-29.14537-6.46507-8.23902-3.11427-16.05755-7.29291-23.19278-12.47023-2.28643-1.64255-4.50715-3.40336-6.63589-5.25615-5.58466-4.8488-10.77512-10.73569-13.7974-17.35845-1.74767-3.79757-2.78576-7.83167-2.78576-12.06287,12.48337-5.55838,20.66983-18.21257,24.19145-31.4318,3.19311-11.90519,3.11427-24.37541,2.70692-36.72738"/>
    <path class="cls-1" d="M745.37197,245.05811c-4.86746,21.84247,2.81743,46.0355,19.39744,61.06508"/>
    <path class="cls-1" d="M691.8906,49.63049c8.76319-4.37614,19.59626-4.34185,28.33146.08975"/>
    <path class="cls-1" d="M731.26734,65.0552c3.9592,5.64432,5.36456,12.67114,6.11527,19.52464.75058,6.85337.95452,13.83078,2.89969,20.44512,1.94517,6.61434,5.97283,13.01424,12.24447,15.87766"/>
    <path class="cls-1" d="M777.76144,138.2775c8.79565,6.04142,16.26753,13.99911,21.74353,23.15743"/>
    <path class="cls-1" d="M801.3161,186.16711c1.38881,10.40613-.83809,20.93605-3.47695,31.09738-2.63885,10.16133-5.72303,20.33672-6.08702,30.82879-.36399,10.49194,2.36514,21.59635,9.82914,28.97902"/>
    <path class="cls-1" d="M816.82268,304.15528c9.85739,8.22194,15.80617,20.94012,15.79842,33.77631"/>
    <path class="cls-1" d="M400.93107,391.76315c-11.64238-12.90386-19.47405-29.22422-22.04957-46.3987-3.27196-21.7999,1.97106-44.74301,14.37558-62.95558,11.22189-16.49118,28.17299-29.5133,34.75632-48.34348,8.92232-25.46607-3.15369-56.26713,10.91966-79.30222,12.61477-20.6304,40.49867-25.55805,58.36959-41.85213,17.6344-16.08383,23.45559-41.10312,35.95209-61.4313,14.78293-24.06004,39.77594-41.6156,67.42331-47.37109,27.66051-5.74235,57.56803.39421,80.72138,16.57003"/>
    <path class="cls-1" d="M671.93456,43.89695c-3.59311-4.93356-8.7218-8.73192-14.48872-10.73031"/>
    <path class="cls-1" d="M635.85606,28.1616c-18.72084-6.0204-39.97055-3.65092-56.90562,6.3451-16.93493,9.99615-29.27783,27.45513-33.05359,46.75441"/>
    <path class="cls-1" d="M600.45494,59.6729c-8.06189,2.75554-13.88111,9.86291-17.95331,17.34649-4.07207,7.48358-6.85232,15.6481-11.34501,22.887-4.49257,7.23904-11.24436,13.73446-19.65802,15.07531"/>
    <path class="cls-1" d="M520.76547,131.67827c-12.44434,27.66182-49.51639,39.02313-58.92319,67.85958-4.7103,14.43944-1.29039,30.38307-4.73645,45.17507-3.10862,13.34354-11.52123,24.71352-17.75555,36.91371-6.23432,12.20019-10.27933,27.07169-4.25814,39.37858"/>
    <path class="cls-1" d="M522.54271,204.36562c-9.08211,1.03165-15.50697,9.95069-17.26883,18.91992-1.76173,8.9691-.06386,18.19943.53363,27.32044,1.31102,20.01162-3.64015,41.77039-18.80008,54.89882"/>
    <path class="cls-1" d="M551.16733,251.58323c-.1364,16.89196-5.59623,33.7022-15.41144,47.45059"/>
    <path class="cls-1" d="M714.56591,323.20792c15.3322-1.68144,32.67751,6.85508,39.78304,20.54499"/>
    <path class="cls-1" d="M558.83369,321.18785c-16.72429-5.01989-36.15537.64073-49.68169,15.10776,14.10082,24.33691,31.18989,47.63889,54.25731,63.73271,30.96795,21.60595,71.84729,28.3354,108.107,17.79629,36.25958-10.53925,67.16261-38.13287,81.72426-72.9725"/>
    <path class="cls-1" d="M531.03402,368.88574c.91983-7.80539,4.0998-15.37425,9.15885-21.41883,5.74235-6.88556,13.84997-11.72122,22.60146-13.65286"/>
    <path class="cls-1" d="M562.46582,399.35829c-1.24834-7.91051-.23653-16.18895,3.00915-23.50815,3.62675-8.16018,9.98669-15.05888,17.75266-19.42149"/>
    <path class="cls-1" d="M596.31546,416.30939c-3.5479-7.47688-4.75682-16.05755-3.2851-24.20459,1.61627-8.97488,6.46507-17.30589,13.39005-23.20592"/>
    <path class="cls-1" d="M638.08874,422.69561c-7.37176-14.4807-8.34414-32.15452-2.52295-47.33167"/>
    <path class="cls-1" d="M662.62184,373.64256c9.09315,12.56221,12.20742,29.30306,8.38357,44.32252"/>
    <path class="cls-1" d="M689.58591,363.11711c6.20226,4.58599,11.11677,10.91966,13.92881,18.10745,2.52295,6.47821,3.32452,13.61344,2.39155,20.51214"/>
    <path class="cls-1" d="M710.38714,339.92433c2.93031.78842,5.71607,2.7332,7.98935,4.82252,8.89604,8.16018,14.45442,19.77628,15.57136,31.77345"/>
    <path class="cls-1" d="M510.77155,659.53791c1.53743,8.97488-1.85279,19.76314-10.52545,22.22039-5.05905,1.4323-10.63057-.47305-14.67781-3.83699-4.04724-3.37708-6.79358-8.02878-9.11943-12.75931-2.01048-4.11294-3.74501-8.31786-5.26929-12.60163-5.42698-15.20343-8.18646-31.39238-10.88024-47.37109-.63074-3.69245-1.24834-7.5163-.30223-11.14305.93297-3.62675,3.88955-7.01697,7.62142-7.22721-.19711-.26281-.38107-.51248-.57818-.749h-.01314c-3.33766-4.04724-7.59514-4.32319-11.36643-3.83699-10.48603,1.35346-17.8315,5.57152-23.53443,14.46756-2.45725,19.78942.40735,34.11244,7.22721,53.2317,6.93812,19.44777,22.92997,48.40918,43.83632,50.6956-31.09015,27.85762-66.45093,53.20542-107.37008,62.19344-40.9323,8.98802-88.50049-1.80023-113.45408-35.4659-15.36111-20.72239-20.57784-47.6996-18.67249-73.42847,1.90536-25.74201,10.40718-50.52478,20.31503-74.3483,22.83799-54.91367,53.8493-106.87075,94.913-149.90551,41.05056-43.0479,92.45575-76.93695,149.6427-93.32301"/>
    <path class="cls-1" d="M471.17957,652.56037c18.85645-1.76081,37.69976-3.52162,56.55622-5.28243,3.40336-.32851,7.05639-.749,9.57934-3.04857,2.53609-2.29957,2.89088-7.16151-.14454-8.71208,3.65303,1.20892,7.93679.35479,10.84082-2.1813,2.91717-2.52295,4.36261-6.63589,3.67931-10.43347,3.81071.6833,7.96307-1.10379,10.07868-4.34947,2.12874-3.24568,2.1156-7.75283-.03942-10.98536,4.46773-.51248,8.52811-3.69245,10.09182-7.89737,1.56371-4.21806.56504-9.27711-2.47039-12.57535-3.95526,2.61494-10.84082,2.1156-16.75399.27595s-11.47156-4.8488-17.54241-6.04458c6.05772-.84098,11.64238-2.24701,16.57003-4.7174,4.9145-2.47039,9.25083-5.96573,13.37691-9.60562,3.21939-2.83832,6.62275-6.49135,6.084-10.74883-.32851-2.6018-2.19444-4.86194-4.53343-6.03144-2.33899-1.15635-5.09847-1.31404-7.67398-.80156-9.0143,6.46507-22.28609,8.01563-34.80888,9.64504-12.53593,1.64255-25.87342,4.0341-34.96656,12.79873-3.33766,3.21939-5.93945,7.14837-9.39538,10.22322s-8.22588,5.28243-12.66733,3.98154h-.01314"/>
    <path class="cls-1" d="M621.24277,562.25964c6.39937-3.02229,10.57801-4.99335,10.57801-4.99335h.23653"/>
    <path class="cls-1" d="M607.56362,568.73785c-13.03526,6.18912-28.50149,13.5346-38.84298,18.48852"/>
    <path class="cls-1" d="M615.18505,537.5163c12.28626-5.58466,21.64221-9.84215,22.90369-10.64371,17.10878-7.37176,30.82734,2.50981,33.12691,7.3849,2.28643,4.86194,1.9842,10.73569-.19711,15.66334-2.16816,4.92764-6.05772,8.9486-10.53859,11.95775-2.02362,1.35346-4.29691,2.54923-6.72788,2.56238-2.44411,0-5.03277-1.51114-5.50582-3.90269,2.29957-3.03543,4.12608-4.88822,5.12475-7.21407.99867-2.33899.98553-5.28243-.69644-7.18779-2.01048-2.26015-5.72921-2.22073-8.39671-.76214-2.65436,1.45858-4.52029,3.99468-6.35995,6.41251-1.82651,2.43097-5.86061,5.47954-5.86061,5.47954"/>
    <path class="cls-1" d="M599.42973,544.66467c-9.60562,4.37575-19.63173,8.96174-28.31753,13.03526"/>
    <path class="cls-1" d="M432.13121,596.70545c-15.83272,11.01624-34.1127,20.03764-51.93685,27.40848-13.94904,5.7685-30.4514,10.2018-43.59901,2.78616"/>
    <path class="cls-1" d="M505.13432,649.39353c1.9842,2.6675,3.66617,5.55838,5.01963,8.60695.22339.49933.43363,1.01181.6176,1.53743,3.08799,8.42299.86727,18.27828-4.42831,25.58433-5.61094,7.76597-14.24418,12.90386-23.2979,16.03127"/>
    <path class="cls-1" d="M761.201,644.1768c-1.20892,1.64255-2.12874,3.50848-2.83832,5.44012-1.05123,2.87774-1.73453,6.12342-2.37841,9.13257,0,.01314-.01314.03942-.01314.05256-1.9185,8.98802,1.35346,20.39388,10.40718,22.95625,5.05905,1.4323,10.64371-.47305,14.67781-3.83699,4.04724-3.37708,6.79358-8.02878,9.11943-12.75931,2.49667-5.09847,4.58599-10.35462,6.35995-15.72904,4.7174-14.2836,7.27977-29.35562,9.78959-44.24368.63074-3.69245,1.24834-7.5163.30223-11.14305-.93297-3.62675-3.88955-7.01697-7.62142-7.22721,3.42964-4.75682,7.96307-5.09847,11.97089-4.58599,10.47289,1.35346,17.81836,5.57152,23.52129,14.46756,2.45725,19.78942-.40735,34.11244-7.22721,53.2317-6.93812,19.44777-22.92997,48.40918-43.83632,50.6956,31.09015,27.85762,66.45093,53.20542,107.37008,62.19344,40.9323,8.98802,88.50049-1.80023,113.45408-35.4659,15.36111-20.72239,20.57784-47.6996,18.67249-73.42847-1.90536-25.74201-10.40718-50.52478-20.31503-74.3483-22.83799-54.91367-53.8493-106.87075-94.913-149.90551-41.05056-43.0479-96.17448-69.53892-153.34829-85.92498"/>
    <path class="cls-1" d="M385.75393,810.53407c-.34165-16.89853.14454-33.81021,1.44544-50.65618"/>
    <path class="cls-1" d="M847.41507,746.72436c2.40469,21.65535,3.11427,43.49467,2.10246,65.26829"/>
    <path class="cls-1" d="M664.16688,584.19173c-8.06163-3.37708-16.80984-4.822-24.97094-7.95138-8.16097-3.12938-16.13258-8.49894-19.19009-16.68724-1.63322-4.37404-1.71666-9.14584-2.38603-13.76666-.66924-4.62082-2.12677-9.45096-5.71764-12.4354-3.59074-2.98431-9.81061-3.10297-12.3835.79315-2.11416,3.20152-1.04584,7.44981.09303,11.11348,3.00113,9.65503,6.0024,19.31006,10.38905,29.37034-8.70629,29.64734-15.32116,59.95997-18.61467,90.68337-3.51229,32.76305-3.2437,65.90153-8.09921,98.49257-4.85537,32.59118-15.42497,65.4428-37.46048,89.94147"/>
    <path class="cls-1" d="M407.19969,810.98032c13.14393-20.42739,28.84512-41.22007,51.72161-49.38735,7.46716-2.66592,15.88738-3.8044,23.24771-.85623,12.17995,4.87863,17.7135,19.22557,18.6173,32.3151.90393,13.08953-1.41929,26.41651,1.20497,39.27214"/>
    <path class="cls-1" d="M481.8882,760.10022c28.67574,7.13037,57.35134,14.26073,86.02708,21.39123"/>
    <path class="cls-1" d="M834.49439,596.70545c15.83259,11.01624,34.11257,20.03764,51.93671,27.40848,13.94918,5.7685,30.4514,10.2018,43.59901,2.78616"/>
    <path class="cls-1" d="M755.97113,658.80205c-3.32452,8.62009-1.13007,18.81703,4.31005,26.32019,5.61094,7.76597,14.24418,12.24684,23.2979,15.37425"/>
    <path class="cls-1" d="M588.78601,952.71304c-22.11527,11.35329-47.20026,16.87225-72.07501,19.35579-30.77478,3.07485-61.81237,1.86593-92.69227,3.4165-6.55705.34165-13.25865.82784-19.29008,3.40336-6.04458,2.57552-11.39271,7.66084-12.58849,14.11277-1.19578,6.45193,2.99601,13.92881,9.5005,14.84863-6.99068,4.8488-4.79624,17.84464,3.40336,20.13107-3.53476,5.00649-1.31404,13.03526,4.31005,15.49251-2.87774,6.57019,3.27196,15.15086,10.42033,14.53327-2.68064,2.72006-1.09065,7.68713,2.1156,9.76331,3.19311,2.07618,7.26663,2.07618,11.07734,2.01048,37.83117-.67016,75.67548-1.35346,113.50664-2.02362,10.34148-.18397,20.82751-.38107,30.76164-3.2851,14.27046-4.15236,26.14937-13.45575,37.09531-23.75782"/>
    <path class="cls-1" d="M590.64735,923.10144c-4.63566,24.93375-.90958,50.84593,6.8422,74.9931,7.75164,24.1473,19.41334,46.82248,29.43748,73.02835,88.51994-17.97066,177.04001-35.94119,265.55995-53.91185,33.75699-6.8531,68.40674-14.061,97.32505-32.77554,21.56731-13.95745,39.49619-34.80954,45.89095-59.69046,6.01475-23.40184,1.43414-48.57107-8.47896-70.60618-9.32731-20.73277-23.79553-39.75505-43.5404-51.02385-22.42012-12.79558-49.79917-14.55521-75.21937-10.06094-25.42021,4.49427-49.39786,14.77426-73.11192,24.97396-81.90218,35.22688-163.80436,70.45375-244.70498,105.07341Z"/>
    <path class="cls-1" d="M834.35353,1029.00611c2.61494,5.01963.32851,12.168-4.92764,14.46756,2.87774,6.57019-3.27196,15.15086-10.42033,14.53327,2.68064,2.72006,1.09065,7.68713-2.1156,9.76331-3.19311,2.07618-7.26663,2.07618-11.07734,2.01048-37.83117-.67016-75.67548-1.35346-113.50664-2.02362-10.34148-.18397-20.82751-.38107-30.76164-3.2851-.24967-.0657-.49933-.14454-.73586-.22339"/>
    <path class="cls-1" d="M319.38184,1011.47684c8.9486,2.07618,17.96291,3.91583,26.91151,5.72921,19.38207,3.92898,38.75099,7.87109,58.13306,11.80007"/>
    <path class="cls-1" d="M473.80765,848.2864h.01314c13.54774,5.83433,27.09547,11.66866,40.61693,17.46357q.01314,0,.02628.01314c12.11543,5.20359,24.20459,10.40718,36.2806,15.59764h.01314v.01314c4.88822,2.07618,9.76331,4.17864,14.63839,6.26796h.01314c7.35862,3.16683,14.70409,6.32053,22.04957,9.47422,10.65685,4.55971,21.28742,9.13257,31.91799,13.69228h.01314"/>
    <path class="cls-1" d="M577.97148,1064.24862c11.28759,2.28643,22.58832,4.58599,33.87591,6.87242,2.44411-6.38623,4.98021-12.56221,7.54258-18.59364"/>
    <path class="cls-1" d="M303.99445,1007.61356h-.01314c-19.40835-5.29558-38.18596-12.28626-55.01879-23.17964-21.56337-13.95509-39.48686-34.80888-45.88622-59.68363-6.0183-23.40303-1.4323-48.58,8.47555-70.61643,9.32967-20.72239,23.79724-39.74966,43.54724-51.02411,22.4175-12.78559,49.78892-14.54641,75.21556-10.05239,25.4135,4.49401,49.39471,14.76979,73.1131,24.96673,11.40585,4.90136,22.81171,9.81587,34.20442,14.70409"/>
    <path class="cls-1" d="M46.06184,952.16114c1.65569,21.72106,5.66351,41.8127,12.01031,60.09098,1.41916,4.0998,2.95659,8.12076,4.61228,12.03659,1.85279,4.37575,3.85013,8.63323,6.00516,12.77245,3.03543,5.86061,6.35995,11.47156,9.94727,16.80655,3.62675,5.4007,7.5163,10.51231,11.66866,15.30855,3.69245,4.31005,7.59514,8.35728,11.6818,12.14172,6.2811,5.83433,12.99584,11.02478,20.03909,15.47937,2.56238,1.61627,5.17731,3.14055,7.83167,4.55971,6.60961,3.5479,13.50832,6.42565,20.53842,8.63323,26.34647,8.2653,54.7297,7.12209,77.90934-3.79757,26.88523-12.65419,49.2633-38.34364,66.50349-76.34564,3.29824-7.25349,6.32053-14.70409,9.17199-22.23353h.01314c3.67931-9.68446,7.09581-19.48719,10.44661-29.10595,5.79491-16.64887,11.78693-33.86277,19.1324-50.39338,18.50166-41.66816,43.00848-70.34048,72.81087-85.24168,9.84215-4.9145,20.40702-8.30472,31.24784-10.14438,20.69611-3.49534,42.37774-1.35346,61.83865,6.58333,20.78809,8.47555,38.77728,23.42931,51.27378,42.04923h.01314v.01314"/>
    <path class="cls-1" d="M514.464,865.76311q-.01314-.01314-.02628-.01314c-6.43879-4.79624-13.46889-8.80406-20.91949-11.83949-6.33367-2.58866-12.95642-4.45459-19.69744-5.62408h-.01314c-20.3676-3.50848-41.86527-.56504-60.38007,8.69893-26.43845,13.20609-48.46174,39.30289-65.45226,77.52827-7.06953,15.92615-12.95642,32.83782-18.64621,49.18446-3.19311,9.17199-6.43879,18.48852-9.94727,27.77877-3.14055,8.38357-6.50449,16.71457-10.21008,24.88789-18.83017,41.49734-43.78376,69.80172-74.15119,84.09846-15.164,7.13523-32.20708,10.66999-49.61809,10.66999-17.97605,0-36.33316-3.77129-53.40252-11.22189-3.24568-1.41916-6.45193-2.96973-9.59248-4.6517-32.00998-17.16134-58.36959-47.29225-74.24317-84.83432-8.50183-20.10479-14.13905-42.44344-16.85911-66.72687"/>
    <path class="cls-1" d="M716.12948,568.55389c-.40735-5.08533-2.22073-10.48603-6.39937-13.25865-.98553-.65702-1.78709-1.498-2.36527-2.45725-1.55057-2.53609-1.60313-5.83433.15768-8.47555,2.40469-3.62675,7.29291-4.61228,10.91966-2.20758,4.07352,2.70692,7.33233,6.50449,9.6319,11.0642,2.47039,4.88822,3.83699,10.65685,3.91583,16.89853"/>
    <path class="cls-1" d="M587.45884,897.11607c29.22422-12.22056,52.39071-35.93895,68.11976-56.37225,39.30289-51.02411,62.67964-114.55788,65.85961-178.88006.26281-5.55838.39421-11.18247.52562-16.60945.18397-8.2653.38107-16.29408,1.02495-24.13889"/>
    <path class="cls-1" d="M565.39613,887.64185h.01314c33.5474-7.31919,60.41949-34.0993,77.67281-56.5168,37.35811-48.50116,59.59165-108.89437,62.60079-170.03658.26281-5.34814.39421-10.8671.51248-16.20209.17083-7.4506.35479-15.0326.89355-22.64088"/>
    <path class="cls-1" d="M150.39436,1109.9903c9.90785-6.84614,18.43596-15.54508,25.08499-25.58433,4.69112-7.04325,8.44927-14.76979,11.11677-22.98253,2.75948-8.44927,4.34947-17.41101,4.59913-26.7144.01314-.85413.02628-1.70825.02628-2.56238,0-6.99068-.76214-13.81054-2.20758-20.3676-1.51114-6.91184-3.77129-13.5346-6.71474-19.77628-3.20625-6.84614-7.22721-13.24551-11.91833-19.07984-4.90136-6.12342-10.57801-11.62924-16.85911-16.35978-8.55439-6.45193-18.23885-11.4847-28.6986-14.74351v-.01314c-6.25482-1.94478-12.79873-3.27196-19.53975-3.87641-2.85146-.26281-5.74235-.39421-8.67265-.39421-3.79757,0-7.52944.22339-11.20875.67016-6.92498.80156-13.61344,2.36527-19.98652,4.59913-6.84614,2.39155-13.33749,5.54524-19.35579,9.35595-5.29557,3.3508-10.2495,7.22721-14.75665,11.53726-6.38623,6.09714-11.91833,13.07468-16.3992,20.73553-5.335,9.09315-9.18513,19.17182-11.22189,29.88124-1.10379,5.76863-1.68197,11.73436-1.68197,17.8315,0,43.50781,29.3819,80.16949,69.39437,91.20741,8.02877,2.22073,16.47804,3.40336,25.2164,3.40336,3.20625,0,6.38623-.15768,9.5005-.47305,9.06687-.90669,17.7658-3.08799,25.88656-6.37309h.01314"/>
    <path class="cls-1" d="M14.90386,984.43393c5.19045,27.67365,14.16533,54.58516,28.39637,78.80289,15.19028,25.84714,36.79308,48.46174,62.81104,63.04757"/>
    <path class="cls-1" d="M3.68197,1014.31516c11.90519,41.62874,35.67614,79.89354,67.7124,109.03891"/>
    <path class="cls-1" d="M65.4155,942.80519c1.95792,23.32418-.53876,47.02944-7.34547,69.43379v.01314"/>
    <path class="cls-1" d="M85.40202,938.20605c2.20758,33.65253-3.56104,67.80439-16.71457,98.85512"/>
    <path class="cls-1" d="M105.28342,937.9301c2.6018,40.11759-6.7673,80.97105-26.6487,115.93762"/>
    <path class="cls-1" d="M124.82317,941.80652v.01314c2.39155,15.63706,1.57685,31.73403-1.498,47.38423-1.06437,5.4007-2.39155,10.74883-3.95526,16.00499-.42049,1.41916-.85412,2.83832-1.31404,4.24434-2.07618,6.49135-4.49401,12.86444-7.14837,19.14554-2.61494,6.16284-5.4664,12.2337-8.48869,18.23885-2.83832,5.61094-5.82119,11.16933-8.8829,16.66201-1.07751,1.90536-2.14188,3.79757-3.23253,5.67665"/>
    <path class="cls-1" d="M122.02427,1096.79736c18.4491.02628,36.8982-4.25748,53.45508-12.39138"/>
    <path class="cls-1" d="M101.98519,1081.31798c29.27678.6833,58.71124-6.22854,84.61094-19.89454"/>
    <path class="cls-1" d="M93.53592,1063.49962c18.4491-1.61627,36.92448-3.58733,54.76912-8.48869,15.34797-4.20492,30.28859-10.70941,42.89022-20.30189"/>
    <path class="cls-1" d="M102.41882,1046.83761c16.93796-2.43097,33.87591-5.335,49.84148-11.40585,13.71856-5.21673,26.80638-13.02212,36.75366-23.65269"/>
    <path class="cls-1" d="M110.90751,1028.59876c12.64105-2.96973,25.16384-6.47821,37.00332-11.76064,13.00898-5.80805,25.2821-13.99451,34.38839-24.83533"/>
    <path class="cls-1" d="M118.05588,1009.45322c9.81587-3.77129,19.46091-7.98935,28.34381-13.58716,9.42166-5.92631,18.01547-13.62658,23.9812-22.94311"/>
    <path class="cls-1" d="M123.32517,989.20389c13.03526-7.50316,23.73153-19.0667,30.1966-32.64072"/>
    <path class="cls-1" d="M732.371,607.43628c-11.4847-2.82518-23.32418-3.57418-35.00599-1.77395-4.11294.64388-9.19827,2.57552-9.94727,6.67532-.72272,3.9684,3.12741,7.34548,6.95126,8.65951,11.80007,4.07352,25.33466-2.65436,37.09531,1.56371,7.49002,2.69378,12.73303,9.29025,18.80389,14.44128,12.58849,10.66999,30.05206,15.22971,46.2673,12.4308"/>
    <path class="cls-1" d="M697.36567,605.66838c-4.13699.01787-8.45176-.00394-12.1471-1.86383-3.69534-1.85989-6.51303-6.16889-5.26141-10.11218,1.49209-4.70124,8.32627-6.40068,13.23657-6.86664,15.53798-1.47435,30.30777-.39224,45.60213,2.7198"/>
    <path class="cls-1" d="M693.19373,586.82572c-2.57893-.12602-5.93065-.26346-8.32995-1.21733-2.39943-.95399-4.56484-2.88983-5.08691-5.41857-.62049-3.00494,1.25688-6.09188,3.81965-7.77911,2.5629-1.68709,6.01396-1.96646,9.05267-2.39168,17.12836-2.39615,34.39154-1.72139,51.15604,2.52939"/>
    <path class="cls-1" d="M728.07409,553.21906c4.75682.26281,9.55306.72272,14.55955,1.58999,23.40303,4.02096,47.92298,29.42132,56.37225,32.00998"/>
    <path class="cls-1" d="M707.36485,552.83798c-4.38889-.07884-11.18247-.27595-14.59897.31537-5.13789.89355-10.35462,5.13723-10.35462,9.17199,0,5.29636,6.53235,7.64113,10.23794,7.6937"/>
    <path class="cls-1" d="M627.48432,451.96359c.38593,4.88809.77173,9.77605,1.15767,14.66414"/>
    <path class="cls-1" d="M678.42302,445.40325c1.41496,3.73042,2.83004,7.46072,4.245,11.19114"/>
    <path class="cls-1" d="M704.2783,487.46628c2.05818,4.11636,4.11636,8.23258,6.1744,12.34881"/>
    <path class="cls-1" d="M732.44905,433.05444c2.18682,3.0872,4.37351,6.1744,6.56034,9.26161"/>
    <path class="cls-1" d="M768.33768,402.18242c3.47314,2.44411,6.94627,4.88809,10.41941,7.3322"/>
    <path class="cls-1" d="M629.79965,498.27149c-.3858,4.75945-.77173,9.51889-1.15767,14.27834"/>
    <path class="cls-1" d="M757.14667,478.2048c2.31534,4.11623,4.6308,8.23245,6.94614,12.34868"/>
    <path class="cls-1" d="M790.71996,451.57765c4.50216,2.95856,9.00432,5.91712,13.50648,8.87567"/>
    <path class="cls-1" d="M821.97778,412.21589c4.6308,2.95856,9.26161,5.91712,13.89241,8.87567"/>
    <path class="cls-1" d="M784.15962,531.07304c2.18682,4.50216,4.37351,9.00432,6.56034,13.50648"/>
    <path class="cls-1" d="M816.57524,507.91902c2.70127,3.60178,5.40254,7.20343,8.10381,10.80521"/>
    <path class="cls-1" d="M851.69213,478.2048c3.0872,3.21571,6.1744,6.43156,9.26161,9.64741"/>
    <path class="cls-1" d="M881.79229,448.10452l9.64754,8.87567"/>
    <path class="cls-1" d="M841.65866,562.33086c1.92953,2.7014,3.85907,5.40267,5.7886,8.10394"/>
    <path class="cls-1" d="M878.31915,531.45897c2.82991,3.60165,5.65996,7.20343,8.48987,10.80521"/>
    <path class="cls-1" d="M913.20963,501.23372c3.73095,4.75905,7.46177,9.51797,11.19272,14.27703"/>
    <path class="cls-1" d="M913.43604,585.48488c2.82991,3.98771,5.65996,7.97529,8.48987,11.96287"/>
    <path class="cls-1" d="M958.20047,559.62959c2.05818,5.01674,4.11623,10.03347,6.1744,15.05008"/>
    <path class="cls-1" d="M961.28767,631.02104c-.90038,4.75945-1.80089,9.51889-2.70127,14.27834"/>
    <path class="cls-1" d="M993.70329,643.36985c-1.41496,4.75945-2.82991,9.51889-4.245,14.27834"/>
    <path class="cls-1" d="M866.74221,639.51091c3.0872,1.67225,6.1744,3.34449,9.26161,5.0166"/>
    <path class="cls-1" d="M850.53447,674.24187c2.82991,2.18682,5.65983,4.37351,8.48974,6.56034"/>
    <path class="cls-1" d="M830.31509,707.61976c3.29351,2.63636,6.58701,5.27271,9.88052,7.90893"/>
    <path class="cls-1" d="M902.63084,666.9098c5.14538.64309,10.29076,1.28631,15.43601,1.92953"/>
    <path class="cls-1" d="M897.61423,705.49982c5.14525,1.15767,10.29063,2.31534,15.43601,3.473"/>
    <path class="cls-1" d="M884.10775,737.14358c4.88796.90038,9.77605,1.80089,14.66414,2.70127"/>
    <path class="cls-1" d="M948.93887,690.83555c4.50216-1.80089,9.00432-3.60178,13.50648-5.40254"/>
    <path class="cls-1" d="M965.53254,718.62037c4.50216-3.73042,9.00432-7.46072,13.50648-11.19114"/>
    <path class="cls-1" d="M584.01119,447.9877c-1.77067,3.81373-3.54133,7.6276-5.31213,11.44133"/>
    <path class="cls-1" d="M554.99919,492.52717c-1.6344,5.58453-3.26893,11.16893-4.90347,16.75333"/>
    <path class="cls-1" d="M534.56826,430.0085c-3.1328,4.7672-6.26547,9.5344-9.39827,14.3016"/>
    <path class="cls-1" d="M498.60973,399.77063c-4.4948,2.8604-8.9896,5.72067-13.4844,8.58107"/>
    <path class="cls-1" d="M441.30399,411.0648c-4.63842,3.12163-9.27685,6.24339-13.91527,9.36502"/>
    <path class="cls-1" d="M474.90986,451.6653c-3.54133,2.72413-7.08267,5.44827-10.62413,8.1724"/>
    <path class="cls-1" d="M509.23386,479.45143c-2.17933,4.7672-4.35853,9.5344-6.53787,14.3016"/>
    <path class="cls-1" d="M386.92868,447.42043c-4.22122,3.40651-8.44243,6.81316-12.66378,10.21967"/>
    <path class="cls-1" d="M415.66013,478.22557c-3.6776,4.35853-7.3552,8.7172-11.0328,13.07573"/>
    <path class="cls-1" d="M454.07026,506.01157c-3.26893,4.90347-6.53787,9.80693-9.8068,14.71027"/>
    <path class="cls-1" d="M486.3512,529.71156c-1.77067,4.63093-3.54133,9.262-5.312,13.89307"/>
    <path class="cls-1" d="M348.49621,503.47245c-2.60679,4.48389-5.21345,8.96779-7.82024,13.45155"/>
    <path class="cls-1" d="M385.83093,533.7977c-2.45173,4.4948-4.90347,8.9896-7.3552,13.4844"/>
    <path class="cls-1" d="M423.83253,561.99237c-2.72413,4.63107-5.44827,9.26213-8.1724,13.89307"/>
    <path class="cls-1" d="M308.60187,559.54076c-2.17933,5.0396-4.35853,10.0792-6.53787,15.1188"/>
    <path class="cls-1" d="M349.8724,583.24063c-2.04307,4.35853-4.08613,8.7172-6.12933,13.07587"/>
    <path class="cls-1" d="M271.0089,642.08183c.8172,5.0396,1.63453,10.0792,2.45173,15.1188"/>
    <path class="cls-1" d="M306.0638,629.83446c.6561,5.04289,1.31207,10.08577,1.96817,15.12866"/>
    <path class="cls-1" d="M302.8812,684.98676c3.95,2.45173,7.9,4.90347,11.85,7.3552"/>
    <path class="cls-1" d="M286.5364,714.81596c3.54147,2.58787,7.0828,5.17587,10.62413,7.76373"/>
    <path class="cls-1" d="M347.42067,667.82476c5.03973-.40867,10.07933-.8172,15.11893-1.22587"/>
    <path class="cls-1" d="M390.73427,645.7593c3.95-2.1792,7.9-4.35853,11.85-6.53787"/>
    <path class="cls-1" d="M402.99293,682.12649c4.63093-2.99653,9.262-5.99307,13.89307-8.98973"/>
    <path class="cls-1" d="M422.198,717.67636c3.95-3.26906,7.9-6.538,11.85-9.80693"/>
    <path class="cls-1" d="M353.55,706.23503c3.4052.68093,6.81027,1.362,10.21547,2.04307"/>
    <path class="cls-1" d="M363.3568,741.78489c6.12933-1.36213,12.25867-2.72413,18.38787-4.08627"/>
    <path class="cls-1" d="M559.90266,651.07143c-.40867,4.90333-.8172,9.8068-1.22587,14.71027"/>
    <path class="cls-1" d="M521.90106,693.97636c-.2724,5.17587-.5448,10.35173-.8172,15.5276"/>
    <path class="cls-1" d="M563.17159,698.06263c-.2724,4.90333-.5448,9.8068-.8172,14.71027"/>
    <path class="cls-1" d="M489.62013,729.93489c-.40853,3.4052-.8172,6.81027-1.22587,10.21547"/>
    <path class="cls-1" d="M533.75106,738.10729c-.40867,4.2224-.81733,8.4448-1.22587,12.6672"/>
    <path class="cls-1" d="M567.25773,744.64516c-.40853,4.2224-.8172,8.4448-1.22587,12.6672"/>
    <path class="cls-1" d="M412.3912,772.83983c-.13627,2.72413-.27253,5.44827-.40867,8.1724"/>
    <path class="cls-1" d="M622.10333,602.12021c1.74294,4.65091,3.56065,9.27383,5.45208,13.86652,3.09377-4.13659,6.53774-8.01104,10.28314-11.5684"/>
    <path class="cls-1" d="M656.68672,611.0671c2.64187,5.10123,5.50043,10.09024,8.5653,14.94903,3.3667-3.67983,6.45429-7.61498,9.22731-11.76064"/>
    <path class="cls-1" d="M616.5841,637.42474c-.6335,3.35829-1.267,6.71644-1.90036,10.0746"/>
    <path class="cls-1" d="M640.78567,644.98283c-.22733,2.64437-.45479,5.28887-.68212,7.93338"/>
    <path class="cls-1" d="M663.22183,649.58617l-1.04703,8.97304"/>
    <path class="cls-1" d="M687.47438,658.32965c-.65045,2.96303-1.30103,5.92605-1.95148,8.88908"/>
    <path class="cls-1" d="M613.12424,667.9563c1.65096,4.45196,3.65605,8.77252,5.99018,12.90741,3.70519-3.84067,7.61314-7.48568,11.7023-10.91467"/>
    <path class="cls-1" d="M651.73319,680.00327c2.08617,3.98259,4.1722,7.96518,6.25837,11.94776.18896.36083.40814.74953.78724.89815.57713.22628,1.185-.20736,1.65345-.61326,3.39784-2.94423,6.79568-5.88847,10.19352-8.8327"/>
    <path class="cls-1" d="M686.30488,689.66159c1.14111,2.84752,2.28209,5.69517,3.42307,8.5427"/>
    <path class="cls-1" d="M612.61045,701.18662c-.65741,3.42754-1.3147,6.85508-1.97211,10.28261"/>
    <path class="cls-1" d="M636.93383,709.02184l-1.73414,8.26504"/>
    <path class="cls-1" d="M660.41254,717.48556c-.50091,2.31507-1.00195,4.63001-1.50287,6.94496"/>
    <path class="cls-1" d="M680.5398,722.67996l-.74427,7.44469"/>
    <path class="cls-1" d="M609.19566,733.62077c1.37501,5.13868,3.64646,10.0361,6.68097,14.40515,3.83568-4.12306,7.79882-8.12733,11.88206-12.00532"/>
    <path class="cls-1" d="M647.8368,745.50388c.83468,5.09492,1.88512,10.60101,5.7187,14.05929,3.79875-3.77839,7.59751-7.55664,11.39626-11.3349"/>
    <path class="cls-1" d="M606.14722,764.99462c-.62246,2.66145-1.24505,5.32304-1.86751,7.98449"/>
    <path class="cls-1" d="M626.60641,771.23946c-.55321,2.68576-1.10642,5.37166-1.65976,8.05742"/>
    <path class="cls-1" d="M652.33633,779.10017c-.66753,2.56789-1.33506,5.13579-2.00259,7.70368"/>
    <path class="cls-1" d="M599.44313,796.93062c.99092,5.26299,2.61336,10.40666,4.82134,15.28582,4.50479-3.50139,9.07054-6.92433,13.69465-10.26658"/>
    <path class="cls-1" d="M631.75481,808.26105c.46044,4.67706,1.04243,9.34216,1.74544,13.98899,1.96988-1.10773,3.93988-2.21534,5.90989-3.32307"/>
    <path class="cls-1" d="M592.00304,826.37533c-1.34426,2.84371-2.68852,5.68742-4.03265,8.53113"/>
    <path class="cls-1" d="M617.61063,837.5875c-1.71219,2.76408-3.42438,5.52816-5.13645,8.29224"/>
    <path class="cls-1" d="M574.44867,850.04603c-1.46502,5.59058-2.42992,11.31203-2.87945,17.0737,5.85312-.99197,11.51203-3.11716,16.57121-6.22315"/>
    <path class="cls-1" d="M517.68221,802.07666c1.86593-4.25591,4.17588-8.31694,6.88044-12.09586,3.97129,4.41438,7.0146,9.6595,8.87633,15.29777"/>
    <path class="cls-1" d="M549.53056,806.40431c3.26118-3.44896,6.52223-6.89791,9.78341-10.347.76477,1.68604,1.65727,3.31427,2.6671,4.86588"/>
    <path class="cls-1" d="M522.63758,823.86447c-.372,3.03635-.74401,6.07257-1.11601,9.10891"/>
    <path class="cls-1" d="M543.47284,827.60619c-.20026,2.4039-.40039,4.8078-.60065,7.21171"/>
    <path class="cls-1" d="M461.64885,778.38257c-2.04714,4.55971-3.71899,9.28789-4.99308,14.12092,5.46653-.43074,10.90823-1.17856,16.2883-2.23873"/>
    <path class="cls-1" d="M482.89935,803.60081c-.91076,4.24645-1.82152,8.49276-2.73228,12.73921,2.31336.04928,4.6266.09855,6.93983.14783"/>
    <path class="cls-1" d="M442.11054,803.24642c-2.48458,2.50521-4.96904,5.01043-7.45349,7.51564"/>
    <path class="cls-1" d="M461.34977,818.46732c-1.62323,1.31272-3.24646,2.62545-4.86956,3.93817"/>
    <path class="cls-1" d="M741.66033,675.92581c-.86253,2.67381-1.72507,5.34774-2.5876,8.02155"/>
    <path class="cls-1" d="M734.69041,706.71439c1.41101,6.08518,3.31742,12.05551,5.69412,17.83242,4.58402-4.01439,9.02955-8.18685,13.32619-12.50741"/>
    <path class="cls-1" d="M769.22058,719.45333c.79197,5.41686,2.28735,10.73044,4.43685,15.76531,4.57167-3.38983,9.06411-6.88648,13.47244-10.48616"/>
    <path class="cls-1" d="M728.58499,743.46621c-.50998,2.74634-1.01996,5.49281-1.52994,8.23928"/>
    <path class="cls-1" d="M751.31444,749.2393c-.731,2.87788-1.462,5.75575-2.19287,8.63363"/>
    <path class="cls-1" d="M770.41465,753.90243c-.62207,2.71783-1.244,5.43565-1.86607,8.15361"/>
    <path class="cls-1" d="M792.67591,759.93242c-.62745,2.71664-1.25504,5.43329-1.88249,8.1498"/>
    <path class="cls-1" d="M813.028,764.72669c-.33101,2.04162-.66201,4.08324-.99302,6.125"/>
    <path class="cls-1" d="M831.83622,769.69139c-.40643,2.58524-.813,5.17035-1.21956,7.75559"/>
    <path class="cls-1" d="M803.79333,731.04696c.49027,4.43764,1.66186,8.79946,3.85578,13.15103,1.68447-1.18408,5.33986-3.16907,7.02419-4.35315"/>
    <path class="cls-1" d="M715.03016,769.52359c1.75332,5.04052,3.50664,10.08104,5.25996,15.12156,4.26432-3.4253,8.42378-6.98122,12.47062-10.66093"/>
    <path class="cls-1" d="M746.82792,778.78165c1.08408,5.25484,2.16816,10.50968,3.25238,15.76452,4.98007-3.59849,9.75279-7.48397,14.28649-11.63095"/>
    <path class="cls-1" d="M776.46198,787.8924c1.17501,5.94786,2.54634,11.85683,4.1111,17.71429,4.67456-4.31951,9.34912-8.63901,14.02368-12.95852"/>
    <path class="cls-1" d="M811.72132,794.51818c.33666,5.41239,1.39695,10.77932,3.14397,15.91301,4.82121-3.93765,9.13651-8.49408,12.80649-13.52211"/>
    <path class="cls-1" d="M704.48631,801.56602c-1.30707,2.52755-2.61402,5.05497-3.92096,7.58253"/>
    <path class="cls-1" d="M728.50129,808.26184c-1.41877,3.60099-3.02084,7.12997-4.79769,10.56842"/>
    <path class="cls-1" d="M748.28282,815.28366c-1.35556,2.98063-2.71112,5.96127-4.06669,8.9419"/>
    <path class="cls-1" d="M770.6517,822.16069c-.91733,2.85974-2.05844,5.64774-3.4094,8.32995"/>
    <path class="cls-1" d="M686.05811,830.90798c1.21654,5.4798,2.43294,10.95961,3.64948,16.43941,5.55392-2.76592,10.98444-5.77954,16.27003-9.02876"/>
    <path class="cls-1" d="M721.06672,844.67923c-.76201,4.15249-.97029,8.4063-.61786,12.61332"/>
    <path class="cls-1" d="M666.51546,859.95007c-1.88512,2.44713-3.77011,4.89427-5.65523,7.34153"/>
    <path class="cls-1" d="M690.01849,870.30863c-.92719,1.29393-1.85437,2.588-2.78156,3.88193"/>
    <path class="cls-1" d="M634.31009,884.6896c-1.71154,3.6341-3.0261,7.45493-3.91308,11.37274"/>
    <path class="cls-1" d="M735.10486,640.91904c.33928,4.73895,1.29065,9.43361,3.01953,14.28452,2.0273-1.20616,4.0546-2.41231,6.08203-3.6186"/>
    <path class="cls-1" d="M779.68953,678.9594c2.61494,3.82385,6.51763,6.80672,10.81454,8.62009,4.00782,1.69511,8.331,2.45725,12.69361,2.6018"/>
    <path class="cls-1" d="M793.23726,658.36842c7.39804,5.90003,16.91168,9.10629,26.37275,8.9486"/>
    <path class="cls-1" d="M800.59588,635.03109c10.17066-.17083,20.39388,2.85146,28.85629,8.51497"/>
    <path class="cls-1" d="M806.02286,606.97637c10.3809-.18397,20.81437,3.19311,29.11909,9.4348"/>
    <path class="cls-1" d="M431.82412,620.1299c2.98287-3.9684,6.39937-7.56886,10.52545-10.30206,5.25615-3.4822,11.90519-5.32186,18.01547-4.28377"/>
    <path class="cls-1" d="M438.78852,648.32916c5.29558-6.84614,12.64105-12.11543,20.85379-14.82235,1.85279-.60446,3.79757-1.09065,5.75549-1.3009"/>
    <path class="cls-1" d="M450.9171,674.1763c8.62009-3.04857,16.55688-8.04192,23.04824-14.4807"/>
    <path class="cls-1" d="M465.72631,692.27061c7.66084-3.15369,14.63839-7.94993,20.34132-13.95509"/>
  </g>
  <path class="cls-1" d="M1136.48948,473.05167c-9.26896-2.20758-17.59484-8.33573-22.59371-16.39053-3.94921-6.36349-6.49161-21.10924-6.49161-31.82943,0,10.72019-2.54253,25.46593-6.49174,31.82943-4.99887,8.05479-13.32474,14.18294-22.59371,16.39053,9.26896,2.20758,17.59484,8.33587,22.59371,16.39053,3.94921,6.36349,6.49174,21.10924,6.49174,31.82956,0-10.72032,2.5424-25.46607,6.49161-31.82956,4.99887-8.05466,13.32474-14.18294,22.59371-16.39053Z"/>
  <path class="cls-1" d="M166.90026,780.23116c-19.73893-.62614-29.43512-12.99269-37.22671-25.5474-6.15561-9.91849-10.11836-32.90208-10.11836-49.61139,0,16.70931-3.96288,39.6929-10.11836,49.61139-7.79159,12.55472-17.48775,24.92127-37.22671,25.5474,19.73896.62614,29.43512,12.99269,37.22671,25.5474,6.15548,9.91849,10.11836,32.90208,10.11836,49.61139,0-16.70931,3.96275-39.6929,10.11836-49.61139,7.79159-12.55472,17.48778-24.92127,37.22671-25.5474Z"/>
</svg>